<svg width="383" height="146" viewBox="0 0 383 146" fill="none" xmlns="http://www.w3.org/2000/svg">
<rect y="73" width="16" height="40" fill="#60BCFF"/>
<rect y="73" width="16" height="60" transform="rotate(-90 0 73)" fill="#60BCFF"/>
<rect y="45" width="16" height="60" transform="rotate(-90 0 45)" fill="#60BCFF"/>
<path d="M76.64 116V51.44H95.36V116H76.64ZM86 42.44C82.56 42.44 79.76 41.44 77.6 39.44C75.44 37.44 74.36 34.96 74.36 32C74.36 29.04 75.44 26.56 77.6 24.56C79.76 22.56 82.56 21.56 86 21.56C89.44 21.56 92.24 22.52 94.4 24.44C96.56 26.28 97.64 28.68 97.64 31.64C97.64 34.76 96.56 37.36 94.4 39.44C92.32 41.44 89.52 42.44 86 42.44ZM151.974 50.48C157.094 50.48 161.654 51.52 165.654 53.6C169.734 55.6 172.934 58.72 175.254 62.96C177.574 67.12 178.734 72.48 178.734 79.04V116H160.014V81.92C160.014 76.72 158.854 72.88 156.534 70.4C154.294 67.92 151.094 66.68 146.934 66.68C143.974 66.68 141.294 67.32 138.894 68.6C136.574 69.8 134.734 71.68 133.374 74.24C132.094 76.8 131.454 80.08 131.454 84.08V116H112.734V51.44H130.614V69.32L127.254 63.92C129.574 59.6 132.894 56.28 137.214 53.96C141.534 51.64 146.454 50.48 151.974 50.48ZM222.103 116.96C214.503 116.96 208.583 115.04 204.343 111.2C200.103 107.28 197.983 101.48 197.983 93.8V37.16H216.703V93.56C216.703 96.28 217.423 98.4 218.863 99.92C220.303 101.36 222.263 102.08 224.743 102.08C227.703 102.08 230.223 101.28 232.303 99.68L237.343 112.88C235.423 114.24 233.103 115.28 230.383 116C227.743 116.64 224.983 116.96 222.103 116.96ZM188.023 67.28V52.88H232.783V67.28H188.023ZM277.899 116.96C270.539 116.96 264.059 115.52 258.459 112.64C252.939 109.76 248.659 105.84 245.619 100.88C242.579 95.84 241.059 90.12 241.059 83.72C241.059 77.24 242.539 71.52 245.499 66.56C248.539 61.52 252.659 57.6 257.859 54.8C263.059 51.92 268.939 50.48 275.499 50.48C281.819 50.48 287.499 51.84 292.539 54.56C297.659 57.2 301.699 61.04 304.659 66.08C307.619 71.04 309.099 77 309.099 83.96C309.099 84.68 309.059 85.52 308.979 86.48C308.899 87.36 308.819 88.2 308.739 89H256.299V78.08H298.899L291.699 81.32C291.699 77.96 291.019 75.04 289.659 72.56C288.299 70.08 286.419 68.16 284.019 66.8C281.619 65.36 278.819 64.64 275.619 64.64C272.419 64.64 269.579 65.36 267.099 66.8C264.699 68.16 262.819 70.12 261.459 72.68C260.099 75.16 259.419 78.12 259.419 81.56V84.44C259.419 87.96 260.179 91.08 261.699 93.8C263.299 96.44 265.499 98.48 268.299 99.92C271.179 101.28 274.539 101.96 278.379 101.96C281.819 101.96 284.819 101.44 287.379 100.4C290.019 99.36 292.419 97.8 294.579 95.72L304.539 106.52C301.579 109.88 297.859 112.48 293.379 114.32C288.899 116.08 283.739 116.96 277.899 116.96ZM311.644 116L340.564 78.08L340.204 88.4L312.484 51.44H333.484L351.004 75.56L343.084 75.8L361.204 51.44H381.124L353.284 88.04V77.96L382.084 116H360.844L342.484 90.32L350.284 91.4L332.044 116H311.644Z" fill="#60BCFF"/>
</svg>
