<svg width="545" height="146" viewBox="0 0 545 146" fill="none" xmlns="http://www.w3.org/2000/svg">
<path d="M54.1432 5.58296C60.258 2.11948 67.742 2.11948 73.8568 5.58297L117.857 30.5048C124.125 34.0554 128 40.703 128 47.9072V97.0928C128 104.297 124.125 110.945 117.857 114.495L73.8568 139.417C67.742 142.881 60.258 142.881 54.1432 139.417L10.1432 114.495C3.87459 110.945 0 104.297 0 97.0928V47.9072C0 40.703 3.8746 34.0554 10.1432 30.5048L54.1432 5.58296Z" fill="#CFE9FF"/>
<path d="M39 44H53V117C53 120.866 49.866 124 46 124V124C42.134 124 39 120.866 39 117V44Z" fill="#60BCFF"/>
<path d="M39 44V40C39 34.4772 43.4772 30 49 30L92 30C95.866 30 99 33.134 99 37V37C99 40.866 95.866 44 92 44H39Z" fill="#60BCFF"/>
<circle cx="77" cy="73" r="8" fill="#60BCFF"/>
<rect x="162" y="73" width="16" height="40" fill="#60BCFF"/>
<rect x="162" y="73" width="16" height="60" transform="rotate(-90 162 73)" fill="#60BCFF"/>
<rect x="162" y="45" width="16" height="60" transform="rotate(-90 162 45)" fill="#60BCFF"/>
<path d="M238.64 116V51.44H257.36V116H238.64ZM248 42.44C244.56 42.44 241.76 41.44 239.6 39.44C237.44 37.44 236.36 34.96 236.36 32C236.36 29.04 237.44 26.56 239.6 24.56C241.76 22.56 244.56 21.56 248 21.56C251.44 21.56 254.24 22.52 256.4 24.44C258.56 26.28 259.64 28.68 259.64 31.64C259.64 34.76 258.56 37.36 256.4 39.44C254.32 41.44 251.52 42.44 248 42.44ZM313.974 50.48C319.094 50.48 323.654 51.52 327.654 53.6C331.734 55.6 334.934 58.72 337.254 62.96C339.574 67.12 340.734 72.48 340.734 79.04V116H322.014V81.92C322.014 76.72 320.854 72.88 318.534 70.4C316.294 67.92 313.094 66.68 308.934 66.68C305.974 66.68 303.294 67.32 300.894 68.6C298.574 69.8 296.734 71.68 295.374 74.24C294.094 76.8 293.454 80.08 293.454 84.08V116H274.734V51.44H292.614V69.32L289.254 63.92C291.574 59.6 294.894 56.28 299.214 53.96C303.534 51.64 308.454 50.48 313.974 50.48ZM384.103 116.96C376.503 116.96 370.583 115.04 366.343 111.2C362.103 107.28 359.983 101.48 359.983 93.8V37.16H378.703V93.56C378.703 96.28 379.423 98.4 380.863 99.92C382.303 101.36 384.263 102.08 386.743 102.08C389.703 102.08 392.223 101.28 394.303 99.68L399.343 112.88C397.423 114.24 395.103 115.28 392.383 116C389.743 116.64 386.983 116.96 384.103 116.96ZM350.023 67.28V52.88H394.783V67.28H350.023ZM439.899 116.96C432.539 116.96 426.059 115.52 420.459 112.64C414.939 109.76 410.659 105.84 407.619 100.88C404.579 95.84 403.059 90.12 403.059 83.72C403.059 77.24 404.539 71.52 407.499 66.56C410.539 61.52 414.659 57.6 419.859 54.8C425.059 51.92 430.939 50.48 437.499 50.48C443.819 50.48 449.499 51.84 454.539 54.56C459.659 57.2 463.699 61.04 466.659 66.08C469.619 71.04 471.099 77 471.099 83.96C471.099 84.68 471.059 85.52 470.979 86.48C470.899 87.36 470.819 88.2 470.739 89H418.299V78.08H460.899L453.699 81.32C453.699 77.96 453.019 75.04 451.659 72.56C450.299 70.08 448.419 68.16 446.019 66.8C443.619 65.36 440.819 64.64 437.619 64.64C434.419 64.64 431.579 65.36 429.099 66.8C426.699 68.16 424.819 70.12 423.459 72.68C422.099 75.16 421.419 78.12 421.419 81.56V84.44C421.419 87.96 422.179 91.08 423.699 93.8C425.299 96.44 427.499 98.48 430.299 99.92C433.179 101.28 436.539 101.96 440.379 101.96C443.819 101.96 446.819 101.44 449.379 100.4C452.019 99.36 454.419 97.8 456.579 95.72L466.539 106.52C463.579 109.88 459.859 112.48 455.379 114.32C450.899 116.08 445.739 116.96 439.899 116.96ZM473.644 116L502.564 78.08L502.204 88.4L474.484 51.44H495.484L513.004 75.56L505.084 75.8L523.204 51.44H543.124L515.284 88.04V77.96L544.084 116H522.844L504.484 90.32L512.284 91.4L494.044 116H473.644Z" fill="#60BCFF"/>
</svg>
