<svg width="128" height="145" viewBox="0 0 128 145" fill="none" xmlns="http://www.w3.org/2000/svg">
<path d="M54.1432 5.58296C60.258 2.11948 67.742 2.11948 73.8568 5.58296L117.857 30.5048C124.125 34.0554 128 40.703 128 47.9072V97.0928C128 104.297 124.125 110.945 117.857 114.495L73.8568 139.417C67.742 142.881 60.258 142.881 54.1432 139.417L10.1432 114.495C3.87459 110.945 0 104.297 0 97.0928V47.9072C0 40.703 3.8746 34.0554 10.1432 30.5048L54.1432 5.58296Z" fill="#CFE9FF"/>
<path d="M39 44H53V117C53 120.866 49.866 124 46 124C42.134 124 39 120.866 39 117V44Z" fill="#60BCFF"/>
<path d="M39 44V40C39 34.4772 43.4772 30 49 30L92 30C95.866 30 99 33.134 99 37C99 40.866 95.866 44 92 44H39Z" fill="#60BCFF"/>
<circle cx="77" cy="73" r="8" fill="#60BCFF"/>
</svg>
